<?xml version="1.0" standalone="no"?>
<!DOCTYPE svg PUBLIC "-//W3C//DTD SVG 20010904//EN"
 "http://www.w3.org/TR/2001/REC-SVG-20010904/DTD/svg10.dtd">
<svg version="1.0" xmlns="http://www.w3.org/2000/svg"
 width="150.000000pt" height="150.000000pt" viewBox="0 0 150.000000 150.000000"
 preserveAspectRatio="xMidYMid meet">

<g transform="translate(0.000000,150.000000) scale(0.100000,-0.100000)"
fill="#000000" stroke="none">
<path d="M380 1495 c0 -3 13 -13 30 -23 l29 -18 -32 -30 c-48 -45 -90 -72
-104 -67 -16 6 -17 -9 -1 -25 9 -9 6 -17 -12 -37 -26 -28 -24 -30 15 -15 38
15 49 3 24 -28 -11 -15 -16 -28 -10 -30 6 -2 -3 -22 -19 -44 -37 -50 -41 -85
-9 -68 11 7 22 10 23 8 1 -2 0 -30 -3 -63 -5 -53 -10 -62 -38 -81 -31 -21 -32
-22 -10 -28 12 -3 31 -6 42 -6 11 -1 29 -13 40 -27 11 -14 34 -42 51 -62 49
-58 75 -107 67 -127 -5 -13 -3 -16 10 -11 18 7 42 -26 32 -43 -4 -6 4 -9 17
-7 17 1 24 -4 26 -21 2 -12 8 -20 13 -17 5 4 14 -6 19 -20 13 -34 13 -35 -4
-35 -7 0 -49 -36 -92 -81 -74 -76 -89 -86 -227 -153 l-149 -73 76 -80 c41 -44
109 -103 150 -131 l74 -52 337 0 c378 0 349 -5 468 82 68 51 180 174 174 193
-2 5 -69 37 -150 71 l-146 61 -86 89 c-49 51 -83 94 -80 102 3 7 9 10 15 7 5
-3 10 1 10 10 0 9 20 35 45 59 25 25 45 51 45 59 0 7 9 22 20 32 11 10 20 22
20 27 0 20 46 78 63 78 13 0 17 9 17 41 0 32 3 40 15 35 11 -4 15 2 15 20 0
21 3 23 19 14 29 -15 33 -12 16 13 -20 32 -33 123 -15 112 9 -6 12 1 8 29 -5
48 15 48 35 -1 l16 -38 0 35 c1 59 -28 153 -56 182 -15 15 -25 29 -22 31 2 2
18 9 34 17 26 11 27 14 10 17 -11 2 -40 12 -65 23 -25 10 -53 21 -62 24 -26 8
-22 26 5 26 21 1 20 2 -8 25 l-30 25 -347 0 c-192 0 -348 -2 -348 -5z"/>
</g>
</svg>
